<svg xmlns="http://www.w3.org/2000/svg" viewBox="0 0 393.19 90.23"><path d="M0 0v90.23h90.23V0H0Zm85.61 85.61H4.62V4.62h80.99v80.99Z"/><path d="M59.84 53.28s-.05-.05-.07-.08.05.05.07.08ZM59.73 37.19s-.03.06-.07.18l.03-.22.04.04Z"/><path d="M59.84 53.28v.01l-.06.06v-.16s.05.05.07.08ZM59.73 37.19s-.03.06-.07.18l.03-.22.04.04Z"/><path d="M59.84 53.28v.01l-.06.06v-.16s.05.05.07.08Z"/><path d="M59.69 37.16c0 .07-.02.15-.03.22.04-.12.07-.18.07-.18l-.04-.04Zm.07 16.04v.16l.06-.06v-.01c-.02-.03-.05-.05-.07-.08Zm-3.53-34.25H24.48v20.11h7.06V26.01h22.95s3.58-.04 4.44 2.4c2.14-.02 6.9-.04 6.9-.04-.76-5.39-4.48-9.05-9.6-9.41Zm3.45 18.2c0 .07-.02.15-.03.22.04-.12.07-.18.07-.18l-.04-.04Zm.07 16.04v.16l.06-.06v-.01c-.02-.03-.05-.05-.07-.08Zm8.2 7.29h-8.96c-.46 2.45-1.55 3.69-4.52 3.73H31.52V50.06h-7.06v21.21h31.75c6.63-.45 11.28-3.98 11.72-10.58v-.2Zm-8.2-7.29v.16l.06-.06v-.01c-.02-.03-.05-.05-.07-.08Zm0 0v.16l.06-.06v-.01c-.02-.03-.05-.05-.07-.08Z"/><path d="M66.4 53.07c3.02-3.73-2.89-4.76-1.6-9.54.26-1.01.45-1.11 1.33-1.97 1-.91 1.47-3.05.05-4.37 1.29-1.58 2.22-4.99-.11-7.19h-7.12s-1.82 4.77.69 7.19c0 0-.24.56-.34 1.38-.13 1.01-.02 2.42 1.04 3.64 1.59 2.09.86 5.17-.83 6.92-1.05 1.18-1.29 2.37.24 4.15 0 0-2.94 3.03-1.02 5.63h9.37c.1.04.88-4.77-1.71-5.84Zm-6.74-15.69.03-.22.04.04s-.03.06-.07.18Zm.17 15.91-.07.07v-.16s.05.05.07.08Z"/><path d="M59.73 37.19s-.03.06-.07.18l.03-.22.04.04ZM59.49 46.02c-.15 1.17-1.25 2.02-1.85 3-1.86-1.89-30.33-.55-33.2-.93V41.2c2.77-.41 31.68 1.01 33.32-.92.29 2.65 2.44 2.78 1.72 5.74ZM59.84 53.28v.01l-.06.06v-.16s.05.05.07.08ZM126.97 61.76h-15.3V26.81h13.6c2.37 0 4.41.28 6.13.85 1.72.57 3.01 1.33 3.88 2.3 1.57 1.8 2.35 3.83 2.35 6.1 0 2.73-.88 4.77-2.65 6.1-.6.47-1.02.76-1.25.87-.23.12-.65.31-1.25.58 2.17.47 3.89 1.44 5.18 2.93 1.28 1.48 1.93 3.33 1.93 5.53 0 2.43-.83 4.58-2.5 6.45-1.93 2.17-5.3 3.25-10.1 3.25Zm-7.5-20.8h3.7c2.17 0 3.78-.23 4.83-.7 1.05-.47 1.58-1.48 1.58-3.03s-.48-2.58-1.45-3.08-2.6-.75-4.9-.75h-3.75v7.55Zm0 14.2h5.35c2.23 0 3.91-.28 5.03-.83 1.12-.55 1.68-1.63 1.68-3.25s-.59-2.68-1.78-3.2c-1.18-.52-3.08-.78-5.68-.78h-4.6v8.05ZM146.12 26.81h7.8v34.95h-7.8V26.81ZM189.23 31.39c3.33 3.05 5 7.29 5 12.73s-1.63 9.73-4.88 12.9-8.21 4.75-14.88 4.75h-11.95V26.81h12.35c6.23 0 11.02 1.52 14.35 4.58Zm-5.73 20.78c1.92-1.8 2.88-4.42 2.88-7.85s-.96-6.08-2.88-7.93c-1.92-1.85-4.86-2.78-8.83-2.78h-4.35v21.25h4.95c3.57 0 6.31-.9 8.23-2.7ZM208.9 33.79c-.75.62-1.12 1.43-1.12 2.45s.46 1.83 1.38 2.43c.92.6 3.03 1.31 6.35 2.13 3.32.82 5.89 2.04 7.73 3.68 1.83 1.63 2.75 4.02 2.75 7.15s-1.18 5.68-3.53 7.63c-2.35 1.95-5.44 2.93-9.28 2.93-5.53 0-10.52-2.05-14.95-6.15l4.65-5.7c3.77 3.3 7.25 4.95 10.45 4.95 1.43 0 2.56-.31 3.38-.93.82-.62 1.23-1.45 1.23-2.5s-.43-1.88-1.3-2.5c-.87-.62-2.58-1.24-5.15-1.88-4.07-.97-7.04-2.23-8.93-3.78-1.88-1.55-2.83-3.98-2.83-7.3s1.19-5.88 3.58-7.68c2.38-1.8 5.36-2.7 8.93-2.7 2.33 0 4.67.4 7 1.2 2.33.8 4.37 1.93 6.1 3.4l-3.95 5.7c-3.03-2.3-6.17-3.45-9.4-3.45-1.3 0-2.33.31-3.08.93ZM266.23 58.76c-2.8 2.27-6.04 3.4-9.73 3.4s-6.71-.94-9.08-2.83c-2.37-1.88-3.55-4.46-3.55-7.73 0-3.67 2.45-6.92 7.35-9.75-1.1-1.33-1.9-2.51-2.4-3.53s-.75-2.21-.75-3.58c0-2.83 1.03-5 3.08-6.5s4.48-2.25 7.28-2.25 5.19.73 7.18 2.18c1.98 1.45 2.98 3.48 2.98 6.08 0 3.27-2.38 6.3-7.15 9.1 1.87 2.33 3.27 4.02 4.2 5.05.83-1.53 1.47-3.15 1.9-4.85l5.85 4.2c-.77 2.1-1.7 4.05-2.8 5.85l4.95 4.9-4.95 4.7-4.35-4.45Zm-13.45-4c.97.77 2.22 1.15 3.75 1.15s3.18-.73 4.95-2.2c-2.43-2.57-4.53-4.9-6.3-7-2.57 1.6-3.85 3.32-3.85 5.15 0 1.17.48 2.13 1.45 2.9Zm5.65-22.85c-.73 0-1.39.26-1.98.78-.58.52-.87 1.22-.87 2.1s.67 2.16 2 3.83c2.5-1.33 3.75-2.58 3.75-3.75 0-.97-.3-1.7-.9-2.2-.6-.5-1.27-.75-2-.75ZM309.34 61.76h-15.3V26.81h13.6c2.37 0 4.41.28 6.13.85 1.72.57 3.01 1.33 3.88 2.3 1.57 1.8 2.35 3.83 2.35 6.1 0 2.73-.88 4.77-2.65 6.1-.6.47-1.02.76-1.25.87-.23.12-.65.31-1.25.58 2.17.47 3.89 1.44 5.18 2.93 1.28 1.48 1.93 3.33 1.93 5.53 0 2.43-.83 4.58-2.5 6.45-1.93 2.17-5.3 3.25-10.1 3.25Zm-7.5-20.8h3.7c2.17 0 3.78-.23 4.83-.7 1.05-.47 1.58-1.48 1.58-3.03s-.48-2.58-1.45-3.08-2.6-.75-4.9-.75h-3.75v7.55Zm0 14.2h5.35c2.23 0 3.91-.28 5.03-.83 1.12-.55 1.68-1.63 1.68-3.25s-.59-2.68-1.78-3.2c-1.18-.52-3.08-.78-5.68-.78h-4.6v8.05ZM337.74 52.74c1.3 1.62 3.05 2.43 5.25 2.43s3.94-.81 5.23-2.43c1.28-1.62 1.93-3.82 1.93-6.63v-19.3h7.8v19.55c0 5.07-1.4 8.96-4.2 11.68-2.8 2.72-6.38 4.08-10.75 4.08s-7.96-1.37-10.78-4.1c-2.82-2.73-4.23-6.62-4.23-11.65V26.82h7.8v19.3c0 2.8.65 5.01 1.95 6.63ZM381.09 61.76h-7.8v-13.8l-12.1-21.15h8.45l7.55 13 7.55-13h8.45l-12.1 21.15v13.8Z"/></svg>
